<svg width="420" height="170" viewBox="0 0 420 170" fill="none" xmlns="http://www.w3.org/2000/svg" role="img" aria-label="xijaja top languages">
  <rect x="0.5" y="0.5" width="419" height="169" rx="6" fill="#0d1117" stroke="#30363d" />
  <text x="24" y="30" font-family="'Segoe UI', Ubuntu, Sans-Serif" font-size="18" font-weight="700" fill="#2f81f7">Top Languages</text>
  
      <text x="24" y="52" font-family="'Segoe UI', Ubuntu, Sans-Serif" font-size="11" fill="#e6edf3">TypeScript</text>
      <rect x="132" y="43" width="190" height="8" rx="4" fill="#161b22" />
      <rect x="132" y="43" width="121" height="8" rx="4" fill="#3178c6" />
      <text x="334" y="52" font-family="'Segoe UI', Ubuntu, Sans-Serif" font-size="11" fill="#8b949e">63.6%</text>
    
      <text x="24" y="75" font-family="'Segoe UI', Ubuntu, Sans-Serif" font-size="11" fill="#e6edf3">Svelte</text>
      <rect x="132" y="66" width="190" height="8" rx="4" fill="#161b22" />
      <rect x="132" y="66" width="26" height="8" rx="4" fill="#ff3e00" />
      <text x="334" y="75" font-family="'Segoe UI', Ubuntu, Sans-Serif" font-size="11" fill="#8b949e">13.7%</text>
    
      <text x="24" y="98" font-family="'Segoe UI', Ubuntu, Sans-Serif" font-size="11" fill="#e6edf3">Go</text>
      <rect x="132" y="89" width="190" height="8" rx="4" fill="#161b22" />
      <rect x="132" y="89" width="23" height="8" rx="4" fill="#00ADD8" />
      <text x="334" y="98" font-family="'Segoe UI', Ubuntu, Sans-Serif" font-size="11" fill="#8b949e">12.2%</text>
    
      <text x="24" y="121" font-family="'Segoe UI', Ubuntu, Sans-Serif" font-size="11" fill="#e6edf3">CSS</text>
      <rect x="132" y="112" width="190" height="8" rx="4" fill="#161b22" />
      <rect x="132" y="112" width="8" height="8" rx="4" fill="#663399" />
      <text x="334" y="121" font-family="'Segoe UI', Ubuntu, Sans-Serif" font-size="11" fill="#8b949e">2.6%</text>
    
      <text x="24" y="144" font-family="'Segoe UI', Ubuntu, Sans-Serif" font-size="11" fill="#e6edf3">JavaScript</text>
      <rect x="132" y="135" width="190" height="8" rx="4" fill="#161b22" />
      <rect x="132" y="135" width="8" height="8" rx="4" fill="#f1e05a" />
      <text x="334" y="144" font-family="'Segoe UI', Ubuntu, Sans-Serif" font-size="11" fill="#8b949e">2.2%</text>
    
</svg>